<svg width="500" height="500" viewBox="0 0 500 500" fill="none" xmlns="http://www.w3.org/2000/svg">
<path d="M79.7079 197.608H168.112V223.843H114.847V242.605H160.639V267.727H114.847V307H79.7079V197.608ZM221.506 221.14C236.876 221.14 248.589 224.744 256.645 231.952C264.807 239.16 268.888 250.184 268.888 265.024V270.43H205.924C205.924 276.472 207.249 281.03 209.899 284.104C212.655 287.178 216.948 288.715 222.778 288.715C228.078 288.715 231.947 287.602 234.385 285.376C236.929 283.15 238.201 280.182 238.201 276.472H268.888C268.888 286.648 265.019 294.598 257.281 300.322C249.543 306.046 238.254 308.908 223.414 308.908C207.832 308.908 195.748 305.304 187.162 298.096C178.576 290.782 174.283 279.758 174.283 265.024C174.283 250.608 178.47 239.69 186.844 232.27C195.218 224.85 206.772 221.14 221.506 221.14ZM222.778 241.333C212.814 241.333 207.249 246.05 206.083 255.484H236.929C236.929 251.138 235.657 247.693 233.113 245.149C230.675 242.605 227.23 241.333 222.778 241.333ZM314.398 230.839C320.44 224.373 328.284 221.14 337.93 221.14C349.272 221.14 358.017 224.85 364.165 232.27C370.313 239.584 373.387 250.449 373.387 264.865C373.387 279.387 370.313 290.358 364.165 297.778C358.017 305.198 349.272 308.908 337.93 308.908C326.27 308.908 317.366 304.297 311.218 295.075L308.515 307H282.757V191.725H314.398V230.839ZM328.072 244.513C323.408 244.513 319.91 246.209 317.578 249.601C315.246 252.887 314.08 257.18 314.08 262.48V267.727C314.08 273.027 315.246 277.32 317.578 280.606C319.91 283.892 323.408 285.535 328.072 285.535C337.188 285.535 341.746 280.129 341.746 269.317V260.89C341.746 249.972 337.188 244.513 328.072 244.513ZM388.809 307V275.359H422.517V307H388.809Z" fill="white"/>
</svg>
